<?xml version="1.0" standalone="no"?>
<!DOCTYPE svg PUBLIC "-//W3C//DTD SVG 20010904//EN"
 "http://www.w3.org/TR/2001/REC-SVG-20010904/DTD/svg10.dtd">
<svg version="1.0" xmlns="http://www.w3.org/2000/svg"
 width="32.000000pt" height="32.000000pt" viewBox="0 0 32.000000 32.000000"
 preserveAspectRatio="xMidYMid meet">

<g transform="translate(0.000000,32.000000) scale(0.100000,-0.100000)"
fill="#000000" stroke="none">
<path d="M12 308 c-8 -8 -12 -49 -12 -120 l0 -107 32 14 c38 16 41 20 61 104
l16 63 -45 -5 c-24 -2 -44 -1 -44 3 0 26 78 47 111 30 19 -11 21 -17 15 -64
-3 -28 -9 -62 -13 -75 -5 -21 -4 -22 12 -13 20 10 47 88 47 135 1 27 12 36 23
17 4 -7 12 -7 25 0 10 5 30 10 45 10 15 0 24 4 20 10 -9 15 -278 13 -293 -2z"/>
<path d="M268 263 c7 -3 16 -2 19 1 4 3 -2 6 -13 5 -11 0 -14 -3 -6 -6z"/>
<path d="M229 218 c-15 -27 -11 -76 7 -86 18 -10 51 -5 72 11 6 5 12 28 12 51
l0 42 -41 -1 c-28 0 -44 -5 -50 -17z"/>
<path d="M147 111 c-15 -9 -30 -25 -33 -36 -11 -36 -36 -55 -71 -55 -20 0 -32
-4 -28 -10 9 -15 278 -13 293 2 7 7 12 32 12 55 0 40 -2 43 -19 33 -30 -16
-76 -12 -102 8 -22 17 -26 17 -52 3z"/>
<path d="M42 69 c-13 -5 -20 -13 -17 -19 10 -16 23 -12 35 10 6 11 9 20 8 19
-2 0 -13 -4 -26 -10z"/>
</g>
</svg>
